<?xml version="1.0" encoding="UTF-8" standalone="no"?>
<!DOCTYPE svg PUBLIC "-//W3C//DTD SVG 1.1//EN"
 "http://www.w3.org/Graphics/SVG/1.1/DTD/svg11.dtd">
<!-- Generated by graphviz version 2.43.0 (0)
 -->
<!-- Title: Tree Pages: 1 -->
<svg width="771pt" height="433pt"
 viewBox="0.00 0.00 771.00 433.00" xmlns="http://www.w3.org/2000/svg" xmlns:xlink="http://www.w3.org/1999/xlink">
<g id="graph0" class="graph" transform="scale(1 1) rotate(0) translate(4 429)">
<title>Tree</title>
<polygon fill="white" stroke="transparent" points="-4,4 -4,-429 767,-429 767,4 -4,4"/>
<!-- 0 -->
<g id="node1" class="node">
<title>0</title>
<polygon fill="#f6d1b7" stroke="black" points="377,-425 237,-425 237,-342 377,-342 377,-425"/>
<text text-anchor="middle" x="307" y="-409.8" font-family="Times,serif" font-size="14.00">Sex &lt;= 1.5</text>
<text text-anchor="middle" x="307" y="-394.8" font-family="Times,serif" font-size="14.00">gini = 0.475</text>
<text text-anchor="middle" x="307" y="-379.8" font-family="Times,serif" font-size="14.00">samples = 100.0%</text>
<text text-anchor="middle" x="307" y="-364.8" font-family="Times,serif" font-size="14.00">value = [0.611, 0.389]</text>
<text text-anchor="middle" x="307" y="-349.8" font-family="Times,serif" font-size="14.00">class = N</text>
</g>
<!-- 1 -->
<g id="node2" class="node">
<title>1</title>
<polygon fill="#7dbfee" stroke="black" points="298,-306 158,-306 158,-223 298,-223 298,-306"/>
<text text-anchor="middle" x="228" y="-290.8" font-family="Times,serif" font-size="14.00">Pclass &lt;= 2.5</text>
<text text-anchor="middle" x="228" y="-275.8" font-family="Times,serif" font-size="14.00">gini = 0.38</text>
<text text-anchor="middle" x="228" y="-260.8" font-family="Times,serif" font-size="14.00">samples = 35.3%</text>
<text text-anchor="middle" x="228" y="-245.8" font-family="Times,serif" font-size="14.00">value = [0.255, 0.745]</text>
<text text-anchor="middle" x="228" y="-230.8" font-family="Times,serif" font-size="14.00">class = Y</text>
</g>
<!-- 0&#45;&gt;1 -->
<g id="edge1" class="edge">
<title>0&#45;&gt;1</title>
<path fill="none" stroke="black" d="M279.59,-341.91C273.59,-333.01 267.17,-323.51 260.97,-314.33"/>
<polygon fill="black" stroke="black" points="263.86,-312.35 255.36,-306.02 258.06,-316.27 263.86,-312.35"/>
<text text-anchor="middle" x="250.6" y="-326.86" font-family="Times,serif" font-size="14.00">True</text>
</g>
<!-- 4 -->
<g id="node5" class="node">
<title>4</title>
<polygon fill="#eba069" stroke="black" points="456,-306 316,-306 316,-223 456,-223 456,-306"/>
<text text-anchor="middle" x="386" y="-290.8" font-family="Times,serif" font-size="14.00">Age &lt;= &#45;1.322</text>
<text text-anchor="middle" x="386" y="-275.8" font-family="Times,serif" font-size="14.00">gini = 0.314</text>
<text text-anchor="middle" x="386" y="-260.8" font-family="Times,serif" font-size="14.00">samples = 64.7%</text>
<text text-anchor="middle" x="386" y="-245.8" font-family="Times,serif" font-size="14.00">value = [0.805, 0.195]</text>
<text text-anchor="middle" x="386" y="-230.8" font-family="Times,serif" font-size="14.00">class = N</text>
</g>
<!-- 0&#45;&gt;4 -->
<g id="edge4" class="edge">
<title>0&#45;&gt;4</title>
<path fill="none" stroke="black" d="M334.41,-341.91C340.41,-333.01 346.83,-323.51 353.03,-314.33"/>
<polygon fill="black" stroke="black" points="355.94,-316.27 358.64,-306.02 350.14,-312.35 355.94,-316.27"/>
<text text-anchor="middle" x="363.4" y="-326.86" font-family="Times,serif" font-size="14.00">False</text>
</g>
<!-- 2 -->
<g id="node3" class="node">
<title>2</title>
<polygon fill="#42a2e6" stroke="black" points="140,-179.5 0,-179.5 0,-111.5 140,-111.5 140,-179.5"/>
<text text-anchor="middle" x="70" y="-164.3" font-family="Times,serif" font-size="14.00">gini = 0.087</text>
<text text-anchor="middle" x="70" y="-149.3" font-family="Times,serif" font-size="14.00">samples = 18.5%</text>
<text text-anchor="middle" x="70" y="-134.3" font-family="Times,serif" font-size="14.00">value = [0.045, 0.955]</text>
<text text-anchor="middle" x="70" y="-119.3" font-family="Times,serif" font-size="14.00">class = Y</text>
</g>
<!-- 1&#45;&gt;2 -->
<g id="edge2" class="edge">
<title>1&#45;&gt;2</title>
<path fill="none" stroke="black" d="M173.18,-222.91C156.94,-210.88 139.19,-197.73 123.06,-185.79"/>
<polygon fill="black" stroke="black" points="124.91,-182.81 114.79,-179.67 120.74,-188.43 124.91,-182.81"/>
</g>
<!-- 3 -->
<g id="node4" class="node">
<title>3</title>
<polygon fill="#f5fafe" stroke="black" points="298,-179.5 158,-179.5 158,-111.5 298,-111.5 298,-179.5"/>
<text text-anchor="middle" x="228" y="-164.3" font-family="Times,serif" font-size="14.00">gini = 0.5</text>
<text text-anchor="middle" x="228" y="-149.3" font-family="Times,serif" font-size="14.00">samples = 16.7%</text>
<text text-anchor="middle" x="228" y="-134.3" font-family="Times,serif" font-size="14.00">value = [0.487, 0.513]</text>
<text text-anchor="middle" x="228" y="-119.3" font-family="Times,serif" font-size="14.00">class = Y</text>
</g>
<!-- 1&#45;&gt;3 -->
<g id="edge3" class="edge">
<title>1&#45;&gt;3</title>
<path fill="none" stroke="black" d="M228,-222.91C228,-212.2 228,-200.62 228,-189.78"/>
<polygon fill="black" stroke="black" points="231.5,-189.67 228,-179.67 224.5,-189.67 231.5,-189.67"/>
</g>
<!-- 5 -->
<g id="node6" class="node">
<title>5</title>
<polygon fill="#b5daf5" stroke="black" points="456,-187 316,-187 316,-104 456,-104 456,-187"/>
<text text-anchor="middle" x="386" y="-171.8" font-family="Times,serif" font-size="14.00">SibSp &lt;= 1.784</text>
<text text-anchor="middle" x="386" y="-156.8" font-family="Times,serif" font-size="14.00">gini = 0.473</text>
<text text-anchor="middle" x="386" y="-141.8" font-family="Times,serif" font-size="14.00">samples = 3.7%</text>
<text text-anchor="middle" x="386" y="-126.8" font-family="Times,serif" font-size="14.00">value = [0.385, 0.615]</text>
<text text-anchor="middle" x="386" y="-111.8" font-family="Times,serif" font-size="14.00">class = Y</text>
</g>
<!-- 4&#45;&gt;5 -->
<g id="edge5" class="edge">
<title>4&#45;&gt;5</title>
<path fill="none" stroke="black" d="M386,-222.91C386,-214.65 386,-205.86 386,-197.3"/>
<polygon fill="black" stroke="black" points="389.5,-197.02 386,-187.02 382.5,-197.02 389.5,-197.02"/>
</g>
<!-- 8 -->
<g id="node9" class="node">
<title>8</title>
<polygon fill="#ea9b62" stroke="black" points="600,-187 474,-187 474,-104 600,-104 600,-187"/>
<text text-anchor="middle" x="537" y="-171.8" font-family="Times,serif" font-size="14.00">Pclass &lt;= 1.5</text>
<text text-anchor="middle" x="537" y="-156.8" font-family="Times,serif" font-size="14.00">gini = 0.282</text>
<text text-anchor="middle" x="537" y="-141.8" font-family="Times,serif" font-size="14.00">samples = 61.1%</text>
<text text-anchor="middle" x="537" y="-126.8" font-family="Times,serif" font-size="14.00">value = [0.83, 0.17]</text>
<text text-anchor="middle" x="537" y="-111.8" font-family="Times,serif" font-size="14.00">class = N</text>
</g>
<!-- 4&#45;&gt;8 -->
<g id="edge8" class="edge">
<title>4&#45;&gt;8</title>
<path fill="none" stroke="black" d="M438.39,-222.91C450.69,-213.38 463.89,-203.15 476.51,-193.37"/>
<polygon fill="black" stroke="black" points="478.94,-195.91 484.7,-187.02 474.66,-190.38 478.94,-195.91"/>
</g>
<!-- 6 -->
<g id="node7" class="node">
<title>6</title>
<polygon fill="#399de5" stroke="black" points="312.5,-68 199.5,-68 199.5,0 312.5,0 312.5,-68"/>
<text text-anchor="middle" x="256" y="-52.8" font-family="Times,serif" font-size="14.00">gini = 0.0</text>
<text text-anchor="middle" x="256" y="-37.8" font-family="Times,serif" font-size="14.00">samples = 2.2%</text>
<text text-anchor="middle" x="256" y="-22.8" font-family="Times,serif" font-size="14.00">value = [0.0, 1.0]</text>
<text text-anchor="middle" x="256" y="-7.8" font-family="Times,serif" font-size="14.00">class = Y</text>
</g>
<!-- 5&#45;&gt;6 -->
<g id="edge6" class="edge">
<title>5&#45;&gt;6</title>
<path fill="none" stroke="black" d="M337.59,-103.73C326.44,-94.33 314.59,-84.35 303.47,-74.99"/>
<polygon fill="black" stroke="black" points="305.44,-72.06 295.53,-68.3 300.93,-77.42 305.44,-72.06"/>
</g>
<!-- 7 -->
<g id="node8" class="node">
<title>7</title>
<polygon fill="#e58139" stroke="black" points="443.5,-68 330.5,-68 330.5,0 443.5,0 443.5,-68"/>
<text text-anchor="middle" x="387" y="-52.8" font-family="Times,serif" font-size="14.00">gini = 0.0</text>
<text text-anchor="middle" x="387" y="-37.8" font-family="Times,serif" font-size="14.00">samples = 1.4%</text>
<text text-anchor="middle" x="387" y="-22.8" font-family="Times,serif" font-size="14.00">value = [1.0, 0.0]</text>
<text text-anchor="middle" x="387" y="-7.8" font-family="Times,serif" font-size="14.00">class = N</text>
</g>
<!-- 5&#45;&gt;7 -->
<g id="edge7" class="edge">
<title>5&#45;&gt;7</title>
<path fill="none" stroke="black" d="M386.37,-103.73C386.45,-95.52 386.53,-86.86 386.6,-78.56"/>
<polygon fill="black" stroke="black" points="390.1,-78.33 386.7,-68.3 383.1,-78.27 390.1,-78.33"/>
</g>
<!-- 9 -->
<g id="node10" class="node">
<title>9</title>
<polygon fill="#f4c8a9" stroke="black" points="605,-68 465,-68 465,0 605,0 605,-68"/>
<text text-anchor="middle" x="535" y="-52.8" font-family="Times,serif" font-size="14.00">gini = 0.462</text>
<text text-anchor="middle" x="535" y="-37.8" font-family="Times,serif" font-size="14.00">samples = 13.2%</text>
<text text-anchor="middle" x="535" y="-22.8" font-family="Times,serif" font-size="14.00">value = [0.638, 0.362]</text>
<text text-anchor="middle" x="535" y="-7.8" font-family="Times,serif" font-size="14.00">class = N</text>
</g>
<!-- 8&#45;&gt;9 -->
<g id="edge9" class="edge">
<title>8&#45;&gt;9</title>
<path fill="none" stroke="black" d="M536.26,-103.73C536.11,-95.52 535.95,-86.86 535.8,-78.56"/>
<polygon fill="black" stroke="black" points="539.29,-78.23 535.61,-68.3 532.29,-78.36 539.29,-78.23"/>
</g>
<!-- 10 -->
<g id="node11" class="node">
<title>10</title>
<polygon fill="#e89253" stroke="black" points="763,-68 623,-68 623,0 763,0 763,-68"/>
<text text-anchor="middle" x="693" y="-52.8" font-family="Times,serif" font-size="14.00">gini = 0.207</text>
<text text-anchor="middle" x="693" y="-37.8" font-family="Times,serif" font-size="14.00">samples = 47.9%</text>
<text text-anchor="middle" x="693" y="-22.8" font-family="Times,serif" font-size="14.00">value = [0.883, 0.117]</text>
<text text-anchor="middle" x="693" y="-7.8" font-family="Times,serif" font-size="14.00">class = N</text>
</g>
<!-- 8&#45;&gt;10 -->
<g id="edge10" class="edge">
<title>8&#45;&gt;10</title>
<path fill="none" stroke="black" d="M595.09,-103.73C608.86,-94.06 623.52,-83.77 637.19,-74.17"/>
<polygon fill="black" stroke="black" points="639.39,-76.91 645.56,-68.3 635.36,-71.18 639.39,-76.91"/>
</g>
</g>
</svg>
